<?xml version="1.0" standalone="no"?>
<!DOCTYPE svg PUBLIC "-//W3C//DTD SVG 20010904//EN"
 "http://www.w3.org/TR/2001/REC-SVG-20010904/DTD/svg10.dtd">
<svg version="1.0" xmlns="http://www.w3.org/2000/svg"
 width="512.000000pt" height="512.000000pt" viewBox="0 0 512.000000 512.000000"
 preserveAspectRatio="xMidYMid meet">

<g transform="translate(0.000000,512.000000) scale(0.100000,-0.100000)"
fill="#000000" stroke="none">
<path d="M1830 5111 c-14 -5 -57 -6 -95 -3 -209 14 -402 -118 -469 -320 -5
-16 -20 -18 -129 -18 -112 0 -127 -2 -158 -23 -45 -30 -77 -79 -85 -132 l-6
-44 -332 -3 c-321 -3 -332 -4 -373 -26 -67 -35 -110 -79 -143 -144 l-30 -61 0
-2052 0 -2052 31 -62 c21 -43 47 -75 81 -101 94 -75 -11 -70 1578 -70 1589 0
1484 -5 1578 70 47 36 112 139 112 176 0 11 136 14 738 16 l737 3 56 26 c69
33 127 89 160 155 l24 49 0 2195 0 2195 -24 49 c-33 66 -91 122 -160 155 l-56
26 -1505 2 c-828 0 -1516 -2 -1530 -6z m3010 -228 c14 -9 30 -24 37 -33 17
-21 19 -4277 2 -4313 -6 -13 -23 -31 -39 -40 -25 -15 -94 -17 -739 -17 l-711
0 0 1928 0 1929 -30 61 c-33 65 -76 109 -143 144 -41 22 -52 23 -373 26 l-332
3 -6 44 c-8 53 -40 102 -85 132 -31 21 -46 23 -158 23 -119 0 -125 1 -130 21
-3 12 -16 41 -28 65 l-22 44 1366 0 c1271 0 1368 -1 1391 -17z m-3066 -5 c25
-8 59 -31 88 -59 46 -46 60 -77 73 -160 8 -50 38 -86 83 -99 20 -5 90 -10 155
-10 l117 0 0 -125 0 -125 -590 0 -590 0 0 125 0 125 118 0 c64 0 134 5 154 10
45 13 75 49 83 99 13 83 27 114 73 160 67 67 144 86 236 59z m-884 -570 c0
-24 5 -61 11 -83 15 -52 82 -119 134 -134 56 -15 1274 -15 1330 0 52 15 119
82 134 134 6 22 11 59 11 83 l0 42 305 0 306 0 24 -25 25 -24 0 -2010 c0
-1105 -3 -2017 -6 -2026 -18 -46 29 -45 -1464 -45 -1493 0 -1446 -1 -1464 45
-3 9 -6 921 -6 2026 l0 2010 25 24 24 25 306 0 305 0 0 -42z"/>
<path d="M1763 3250 c-65 -39 -73 -112 -19 -166 l34 -34 466 0 c339 0 472 3
491 12 50 23 72 109 39 156 -36 52 -39 52 -526 52 -431 0 -455 -1 -485 -20z"/>
<path d="M685 2633 c-87 -22 -112 -130 -44 -187 l31 -26 1026 0 c958 0 1028 2
1048 18 45 36 58 107 28 151 -37 53 -7 51 -1076 50 -546 -1 -1002 -4 -1013 -6z"/>
<path d="M1761 1506 c-73 -40 -64 -159 14 -192 50 -21 939 -21 989 0 79 33 90
133 22 188 -19 16 -62 18 -511 17 -388 0 -495 -2 -514 -13z"/>
<path d="M665 891 c-54 -23 -79 -95 -51 -149 34 -66 -30 -63 1097 -60 l1021 3
29 33 c43 47 41 102 -5 148 l-34 34 -1018 -1 c-561 0 -1028 -4 -1039 -8z"/>
</g>
</svg>
